<?xml version="1.0" encoding="utf-8"?>
<!-- Generator: Adobe Illustrator 21.0.0, SVG Export Plug-In . SVG Version: 6.00 Build 0)  -->
<svg version="1.1" id="Layer_1" xmlns="http://www.w3.org/2000/svg" xmlns:xlink="http://www.w3.org/1999/xlink" x="0px" y="0px"
	 viewBox="0 0 170.1 170.1" style="enable-background:new 0 0 170.1 170.1;" xml:space="preserve">
<style type="text/css">
	.st0{fill:#99A4AE;}
	.st1{fill:#EA4745;}
</style>
<g>
	<g id="XMLID_81_">
		<path id="XMLID_129_" class="st0" d="M110.7,19c0,0-1.2,0.1-1.4,0.1c-0.2,0.1-1-0.3-1.6-0.5c-0.6-0.2-2-0.6-2.5-0.6
			c-0.5,0-1.8,0.5-3,0.6c-1.2,0.1-0.9,0.3-1.5,0.9c-0.6,0.6-1.2,0.8-1.8,0.6c-0.6-0.1-0.1-0.5,0.5-0.8c0.7-0.3,0.1-0.5-0.3-0.8
			c-0.5-0.3-0.5-0.2-1.2-0.3c-0.6-0.1-2.3-0.8-2.9-0.9c-0.6-0.1-3.2-0.3-4.2-0.1c-1,0.3-2.1,1-2.8,1.5c-0.7,0.5-1.2,1.1-2,1.7
			c-0.8,0.6-1.8,0.8-2.5,1.4c-0.7,0.6-1,0.9-1.1,1.8c-0.1,0.9,0.1,0.5,0.9,0.8c0.8,0.2,0.7-0.6,1.6-0.8c0.9-0.1,0.7,0.2,1,0.7
			c0.3,0.5,0.3,1.9,0.8,2c0.4,0.1,0.6-0.1,1.4-0.4c0.8-0.3,1.3-1.4,1.7-2c0.4-0.5-0.3-1.4-0.2-2.1c0.1-0.8,0.5-0.5,1.4-0.8
			c0.9-0.3,0.6-0.7,0.8-1.3s0.5-0.3,1-0.1c0.5,0.1,0.2,0.7-0.1,1.2c-0.3,0.5-1,0.8-1.2,1.4c-0.3,0.5,0.8,0.8,1.2,1
			c0.5,0.2,1.4-0.1,2-0.2c0.7-0.1,1.4-0.3,2.1-0.8c0.8-0.5,1.1,0.3,0.8,0.5c-0.3,0.1-0.9,0.3-1.3,0.8c-0.4,0.5-1.6,0.1-2.2-0.1
			c-0.5-0.2-0.9,0.1-0.7,1s0.5,0.8,0.3,1.2c-0.3,0.3-1.3-0.8-1.8-0.5s-0.3,1.1-0.4,1.8c-0.1,0.7-1,0.8-1.6,0.3c-0.7-0.5-2,0.5-2,0.5
			s-2.8,0.1-3.3,0.1s-0.3-0.9,0.1-1.3c0.4-0.4,0.1-0.9-0.5-0.9s-1,1.3-1,1.7c0,0.4-1.4,1.1-1.8,1.1S80,29,78.8,30
			c-1.2,1-3.3,1.4-3.5,1.7c-0.2,0.3-1.1,0.5-1.4,0.3c-0.3-0.2-1.4-0.1-1.6,0.2c-0.2,0.3,0,0.6,0.4,0.8c0.5,0.2,1,1,1.1,1.9
			c0.2,0.9-0.4,1.7-1.1,2c-0.6,0.3-4.3,0-5.1,0s-1.2,0.8-1.7,1.4c-0.5,0.6-0.1,0.8-0.4,1.4c-0.3,0.6-1.2,1.2-1.7,2.1
			c-0.4,0.9,0.2,1.5,0.7,2.3c0.5,0.9,0.6-0.2,1.2-0.1c0.6,0,0.8,0.6,1.1,0.6s1.9-0.3,2.7-0.3c0.8,0,1.6-0.9,2.2-1.4
			c0.6-0.6,0.9-1.3,1.3-2c0.4-0.7,1.9-1.1,2.6-1.3c0.7-0.2,0.5-0.7,0.5-1c0.1-0.3,1-1,1.7-1s1,0.5,1.5,0.1c0.5-0.4,0.9-0.9,1.3-1
			c0.3-0.1,1.3,0.2,1.6,0.7c0.4,0.5,1.3,1.4,1.9,1.8c0.6,0.4,2.9,2.1,3.3,2.4c0.4,0.3,0.1,1,0.1,1.3c0,0.3,0.2,0.6,0.2,0.6
			c0.1-0.1,0.7-1.3,0.7-1.3s0.1-0.8,0.2-0.8c0.1,0,0.6,0.1,0.6,0.1c0.1,0,0.4-0.3,0.4-0.3s-0.3-0.3-0.6-0.4
			c-0.3-0.1-1.1-0.6-1.5-0.9c-0.4-0.2-2.1-2-2.6-2.5c-0.5-0.5-0.6-1.1-0.2-1.4c0.3-0.3,0.9-0.4,1.2-0.3c0.4,0.1,0.9,0.6,1.4,1
			c0.6,0.4,2.7,1.7,3,2c0.2,0.3,0.9,1.9,1.1,2.2c0.2,0.4,0.7,1,1.4,1.5c0.8,0.5,0.8,0.4,0.9,0.7c0.1,0.4-0.6,0.3-0.6,0.6
			c0,0.4,0.7,1,0.7,1s0.8-0.5,0.8-0.9c0-0.5,0.8-0.2,0.8-0.2l0.5-0.7c-0.3-0.3-1.9-1.5-1.9-2.2c0-0.7,1,0.5,1.5,0.2
			c0.5-0.3,0.2-0.6,0.6-0.7c0.4-0.1,1.3,0.5,2,0.3c0.7-0.2,0.7-1,0.7-1.3s-0.5-0.9-0.6-1.2c-0.1-0.4,0.7-1.5,1.6-2
			c0.9-0.5,0,0,0.2-0.5c0.2-0.5,1-0.9,1.6-0.9c0.6,0,0.8,0.9,1.1,1.3c0.4,0.4,1,0.6,1.7,0.4c0.7-0.2,0.2-0.9-0.3-1s0.1-0.8,0.8-0.9
			c0.7-0.1,1.6-0.3,1.6-0.3s0,0,0,0.5c0,0.5,0.3,1.2,0.4,1.7c0.1,0.5,2.6,1.6,3.2,2.1c0.7,0.5,0.6,1.6-0.3,1.7
			c-0.9,0.1-2.7-0.3-3.1-0.6s-1.2-0.6-1.9-0.7c-0.7-0.1-1.5,0.3-2.1,0.8c-0.6,0.5-1.5,0.2-2.1,0.2s-1,0.9-2,0.9c-0.9,0-1,0.3-1,0.9
			c0,0.6,0.4,1.3,0.7,2c0.3,0.7,1.1,1.4,1.8,1.7c0.7,0.3,0.9-0.1,1.9-0.5c0.9-0.4,1.3,0.5,2.2,0.7c0.9,0.2,1.3-0.9,2.2-0.9
			c0.9,0,1.4,1.1,1.4,2.3c0,1.1-0.8,2.4-0.9,3.6c-0.1,1.2-1.4,0.9-2.1,0.8c-0.7-0.2-1-0.7-2-0.3c-0.9,0.4-2,0.7-2.5,0.2
			c-0.5-0.5-3.2-0.8-3.9-0.9c-0.7-0.2-1.8-0.9-2.4-1c-0.6-0.2-1.7,0.2-2.3,0.9c-0.6,0.7-0.3,1.7-0.8,1.9c-0.5,0.2-1.2-0.4-2.4-0.8
			c-1.1-0.4-1.6-0.9-1.6-1.6c0-0.7-1.5,0.1-2.6-0.2s-1.7-0.9-2.5-1.2c-0.8-0.4,0.4-1,0.7-1.5c0.3-0.5-0.1-0.8,0.1-1
			c0.2-0.3-0.2-0.9-0.9-0.9c-0.7-0.1-6.1,0.2-7.4,0.2s-3.1,0.7-4.2,1.2c-1,0.6-3.5-0.1-4.1-0.5c-0.6-0.4-0.9,0.3-1.3,0.8
			c-0.5,0.5-1.1,1.1-1.6,1.2c-0.5,0.1-1.5,1.6-2.1,2c-0.6,0.4-0.8,1.4-1,2.3c-0.3,0.9-1.3,1.4-2.2,1.3c-0.9-0.1-1.7,0.8-1.9,1.1
			c-0.2,0.4-0.9,0.8-1.4,1c-0.5,0.3-2.2,3.3-2.8,4c-0.7,0.7-0.6,2.8-0.6,3.7c0,0.9-1.1,3.1-2,3.5c-0.9,0.4,0.1,1.2,0.7,1.4
			c0.6,0.2,0.1,0.8-0.2,1.2c-0.3,0.5,0.1,1.5,0.9,1.8c0.8,0.3,0.4,1.5,1.1,1.8c0.8,0.3,1,1.5,1,2.2c0,0.7,1.1,1.2,1.8,1.5
			c0.7,0.3,2.5,2.9,3.5,3.5c1,0.6,2-0.5,2.9-0.9c0.9-0.4,2.4,0.2,3.5,0.8c1.1,0.6,2.7-0.2,4.3-1.3c1.6-1.1,4.6,0.2,4.9,0.4
			c0.4,0.2,0.8,1.4,1.1,2c0.4,0.6,1,0.2,1.4,0.4c0.4,0.2,1,0.1,1,0.1s0.4-0.8,0.8-0.7c0.4,0.1,1.2,1.4,1.7,2.2
			c0.5,0.8-0.9,2.2-1.4,2.7c-0.5,0.5,0.4,2.8,0.9,3.3c0.5,0.6,1.1,0.9,2,1.7c0.9,0.8,2,4.6,2.1,5.5c0.1,0.9-0.4,1.4,0,2
			c0.4,0.6,0.2,1.8-0.9,2.8c-1.1,1-0.9,1.9-1.4,2.7c-0.5,0.8-0.4,3.8,0.1,4.3c0.5,0.5,1.9,1.6,2.5,3.5c0.6,1.9,0.4,3.3,0.4,4.6
			c0,1.2,1.7,2.9,2.8,3.7c1,0.8,0.6,2.4,1.1,3.2c0.6,0.9-0.4,1.1-0.4,1.8c0,0.7,1.5,1.8,2.3,2.1c0.8,0.3,1.2-0.6,1.6-0.9
			s1.1-0.3,1.9-0.2c0.8,0.1,2.4,0.1,3.3,0c0.9-0.1,3.6-2.2,4.4-3c0.8-0.9,2.6-2,2.8-2.8s1-2.3,2.4-3s2-1.9,2.3-2.7s-0.4-2-0.4-2.8
			s0.7-1.4,1-1.8c0.4-0.4,2.5-1.8,3.3-2c0.9-0.2,1.7-0.4,2.5-1c0.8-0.7,0.7-2.9,0.7-3.9c0-0.9,0.1-1.7,0.4-2.5
			c0.3-0.8,0.1-1.2-0.3-1.7c-0.4-0.5-0.6-2.7-0.3-4.5c0.3-1.8,1.4-2.4,2.2-2.7c0.8-0.3,2-0.7,2.4-1.4c0.4-0.8,2-2.4,2.8-2.8
			c0.8-0.4,1.6-1.3,2.1-2c0.5-0.7,0.2-1.2,0.6-1.6c0.4-0.4,1.2-1.1,1.2-1.6c0-0.5,0.2-1.2,0.6-1.5c0.4-0.3,0.5-1.5,0.8-2.1
			c0.3-0.6,0.1-1.8-0.1-2.7c-0.2-0.9-0.9-0.7-1.4-0.1c-0.5,0.6-1.6,0.1-2.1,0.1s-2,0.6-2.8,0.8c-0.9,0.2-1.8-0.3-1.9-0.9
			c-0.1-0.7-1.5-2.3-2-2.7c-0.5-0.4-1.4-2.1-1.7-2.6c-0.3-0.5-1.3-0.5-1.3-1c0-0.6-0.6-2.1-1.2-2.6c-0.7-0.5-1.6-2.4-1.6-2.8
			s-0.9-1.8-1.4-2c-0.5-0.2-0.7-1.2-0.8-1.6c-0.1-0.4-0.9-1.6-1.4-1.9c-0.5-0.3-1.4-1.3-1.5-1.6c-0.1-0.3-0.3-1-0.8-1.4
			c-0.5-0.4-1-1.5-0.9-1.8c0.2-0.3,1.1,0.6,1.5,1.4c0.4,0.9,0.8,0,1.3-0.3c0.6-0.3,0.9,1.2,0.9,1.2s0.6,1.4,1,1.6
			c0.5,0.2,0.9,1.2,0.9,1.7c0.1,0.5,2,1.2,2.3,1.6c0.3,0.4,0.9,1.7,1.4,2.5c0.6,0.8,1.2,1.9,1.8,2.3c0.6,0.4,0.7,1.8,1.4,2.5
			c0.8,0.7,0.7,2,0.7,2.7c0,0.7,1,2.2,1.5,2.9s1.1,0.2,1.6,0s1.3-0.3,2.3-0.4c0.9-0.1,3.2-1.7,4-1.8c0.8-0.1,0.5-1,0.7-1.4
			c0.2-0.4,1.4-0.9,1.9-0.9s0.6-0.4,0.7-0.9c0.1-0.5,1.3-1.4,1.8-1.9c0.5-0.5,0.9-3.6,0.9-4.6s-2.4-1.5-3-1.8
			c-0.7-0.3-0.6-0.9-0.9-1.8c-0.4-0.9-0.9,0.6-1.7,0.9c-0.9,0.4-2.5,0.9-2.5-0.2S125,57,124.1,57c-0.9,0-2.2-2.1-2.8-3.3
			c-0.7-1.2,0.9-1.3,1.7-1.2c0.9,0.1,1.1,1.2,2.1,2.5c0.9,1.2,2.6,2.3,3.3,1.8c0.8-0.5,1.3-0.3,1.8,0.4c0.5,0.7,1.3,1,2.1,1.1
			c0.8,0.1,2.1,0.1,3.4,0.1c1.3,0,2.4,0.3,2.8,0.8c0.5,0.5,1.3,1.9,2.2,1.9s1.2,0.7,0.9,0.7c-0.4,0-0.7,0.6-0.5,1
			c0.2,0.5,0.7,0.9,1.2,0.6c0.6-0.4,1.2,0.5,1.5,1c0.3,0.6,0.4,1.4,0.4,2.8c0,1.3,0.6,1.7,1.2,2.3c0.7,0.6,1.4,2.8,1.5,3.4
			c0.1,0.7,0.1,1.7,0.3,2.1c0.2,0.4,0.9,1.6,0.9,2.4c0,0.8,0.5,1.6,0.8,2.3c0.3,0.7,0.8-0.6,0.8-1.3c0-0.8,0.8-1.4,0.8-2.1
			c0-0.7-0.9-0.9-0.9-0.9s0.8,0,0.7-0.5c-0.1-0.5-0.8-2.4-0.8-3.8c0-1.4,0.4-2.6,0.4-2.6c0.1-0.5,0-4.1,0-5.5c0-1.4,1.2-0.7,1.2,0
			c0,0.7,0.8,2.6,1,3.2c0.3,0.7,1.6,2.7,1.6,3.3c0,0.7,1.3,1.7,1.3,1.7C145.2,29.2,110.7,19,110.7,19z M122,44.8
			c-0.7-0.1-1.1,0-1.7-0.4c-0.6-0.4-1.9-1.3-1.8-1.9c0,0,0.7-1-0.1-2.1c-0.9-1.1-2.4-1.1-3.1-2.2c-0.7-1.1-1.1-2.4-0.9-2.9
			c0.2-0.4,1-1.2,1.7-1.2c0.7,0,2.1,0.9,1.7,1.3s-0.7,0.6-0.7,0.9s0.5,0.8,1.2,1.2c0.7,0.4,1.4,1.2,1.4,1.6c0.1,0.4,0.9,0.4,1.1,0.6
			c0.2,0.2,0.8,0.4,0.2,0.6c-0.6,0.2-0.9,0.4-0.6,0.6c0.3,0.2,1,0.6,1.6,1.4c0.6,0.8,0.7,1.2,0.7,1.7S122.8,44.9,122,44.8z"/>
		<path id="XMLID_128_" class="st0" d="M76.9,24.6c-0.1-0.3-0.2-1.1-1-0.9c-0.8,0.3-1.3,0.8-1.4,1.2c-0.1,0.4-0.3,0.8,0.3,1.4
			c0.6,0.7,0.9,0.7,0.6,1s-1.5,0.9-1.7,1.5s-0.4,1.3-0.6,1.4s0.6,0.5,1.3,0.3c0.8-0.3,1.5,0.2,2.3-0.4c0.8-0.6,1.5-1.1,1.4-1.5
			c-0.1-0.4-0.8-0.4-0.9-0.8c-0.1-0.4,0.2-0.6-0.1-0.9c-0.3-0.4-0.9-0.6-0.9-0.8c0-0.2,0-0.5,0.4-0.8C77.1,25.1,76.9,24.6,76.9,24.6
			z"/>
		<path id="XMLID_127_" class="st0" d="M73.3,27.1c0,0-0.5,1.4-1.1,1.7c-0.6,0.3-1.4,0.7-1.8,0.6s-0.6-0.6-0.2-1
			c0.4-0.4,0.7-1.1,1.3-1.4c0.7-0.3,0.9-0.5,1.3-0.5S73.3,27.1,73.3,27.1z"/>
		<path id="XMLID_126_" class="st0" d="M74.2,20.3c-0.6,0-1.8,0.1-1.9,0.1c-0.2,0-0.8,0.3-0.5-0.7s2-1.2,2.4-1.1
			c0.4,0.1,0.9,0.3,1,0.6S75.1,20.3,74.2,20.3z"/>
		<path id="XMLID_125_" class="st0" d="M91.6,14.7c0,0-0.2,1-1.4,1s-3-0.5-3.2-0.9C87,14.7,90.2,14.6,91.6,14.7z"/>
		<path id="XMLID_124_" class="st0" d="M80.7,14.7c0,0-5.5-0.2-14.7,2.6c-3.5,1.4-6.1,3.3-6.4,3.5s-0.4,1.6,0.5,0.9
			c0.9-0.7,4.1-2.3,5-2.5s2.6-0.2,3.1-0.4s2.7-1.1,3.7-1.3c1-0.2,1.6-0.1,2.3-0.3s3.1-1.1,4.1-1.5C79.3,15.3,80.7,14.7,80.7,14.7z"
			/>
		<path id="XMLID_123_" class="st0" d="M56.7,20.7c0,0-1.2,1.3-2.4,1.8c-1.2,0.5-2,0.6-2.6,1.3c-0.6,0.7-0.9,1.9-1.8,2.3
			c-0.9,0.4-1,0.4-1.6,0.9c-0.6,0.5-0.7,1-1.4,1.1s-1.3,0.3-1.7,0.3c-0.5,0-1,0.1-1,0.1s-1.3,1.1-0.5,1c0.9-0.1,1.6-0.9,2.2-0.7
			c0.6,0.2,0.9,1,0.1,1.4c-0.8,0.4-1.2,1.1-1.6,1.2s-0.6,0.4-1-0.1s-0.2-1-0.6-0.9c-0.4,0.2-1.9,2.1-2.5,2.6s-3.8,1.3-4.4,1.8
			C35.9,34.8,44.2,26,56.7,20.7z"/>
		<path id="XMLID_122_" class="st0" d="M17.2,66.2c0,0,1.4,2,1.6,3.5c0.2,1.5-0.3,4,0.3,4.9c0.7,0.9,1.6,1.9,1.8,2.6
			c0.2,0.7,0.3,2.3,0.3,2.6s0.6,1,0,1.8c-0.6,0.8-1.5,1.2-2.1,1.4s-1.6,0.7-0.8,0.8s2,0.6,2.9,0.5c0.9-0.1,1.8-0.1,2.4,0.7
			s1.8,1.9,2.4,1.9s1.9,0.3,2.1,1c0.3,0.7,1.3,1.7,1.6,1.9c0.3,0.2,0.9,0.7,0.9,1.5c0.1,0.9,0.5,1.5,0.5,2.2s-0.1,1.5-0.6,2.2
			s-1.4,2.9-1.5,4.1s-0.3,3.2,0.2,3.6c0.4,0.3,0.6,1.5,0.4,2c-0.2,0.4-0.3,1.2,0,1.7c0.3,0.5,0.9,1.7,0.5,2.3
			c-0.3,0.6-0.3,1.5-1.4,2s-1.5,1.9-1.5,2.5c0,0.6,1.1,1.4,1.3,2.1s0.3,2,0.3,3.3c0,1.3,0.1,2.2,0.4,2.6c0.3,0.4,1.3,1.4,0.9,1.8
			c-0.3,0.4-0.9,0.4-0.7,0.8s0.7,0.9,0.9,1.1c0.3,0.3,0.3,1.9,0.3,1.9s1,0.9,1,1.8c0,0.9,1.4,0.9,1.4,1.4s0.3,1.7,0.3,1.7
			S7.1,107.7,17.2,66.2z"/>
		<path id="XMLID_120_" class="st0" d="M68.3,153.5c-0.2,0,2.7-0.2,3.9-0.2c1.2,0,2.3-0.1,2.3-0.1s0-0.5,0.2-0.6
			c0.2-0.1,1.4-0.4,1.9-0.1c0.5,0.4,0.5,0.8,1.9,0.9c1.4,0.1,2.8-0.1,3.6-0.4s2.7-0.4,3.7,0c1,0.4,2.4,0.1,3.3-0.1s4.2,0,4.3,0.2
			c0.1,0.2,1.5,0.1,1.7-0.2c0.3-0.3,0.1,0.1,1,0.1s2.3-0.5,3.1-0.9c0.9-0.4,2.2-0.7,2.5-0.4c0.3,0.3,2.5,0.8,2.6,1.2
			C104.2,152.9,90.3,158.1,68.3,153.5z"/>
		<path id="XMLID_93_" class="st0" d="M129.2,113.5c0,0,0.4-0.3,0.4-0.6s-0.8-0.3-0.9-0.1C128.7,113.1,129.2,113.5,129.2,113.5z"/>
		<path id="XMLID_92_" class="st0" d="M124.6,107.1c0.1-0.5,0.4-1.3,0.7-1.3c0.3,0,1.4,0,1.2-0.7c-0.2-0.7,0.1-1.1-0.2-1.9
			c-0.3-0.7,0.1-2-0.8-2s-0.9,0.3-1.1,0.8c-0.3,0.5-0.7,1-1,1.4c-0.3,0.4,0.1,1.4-1,2.2s-0.7,1.4-1.7,1.1c-0.9-0.3-1.2-0.5-1.7,0.4
			c-0.5,0.9-0.7,1.8-0.5,2.4c0.1,0.5,0.2,0.8-0.3,1.6c-0.5,0.8-1.4,2.6-1.5,3.8c-0.1,1.1-0.6,2.4-0.1,2.7s1.2-0.1,1.7-0.3
			c0.5-0.3,0.9,0.3,1.5-0.5c0.6-0.8,1.2-1.7,1.7-3C122.2,112.3,124.2,109.6,124.6,107.1z"/>
		<path id="XMLID_91_" class="st0" d="M150.2,78.8c0,0-0.1,1.6-0.1,2.3c0,0.7-0.1,1.4,0.3,1.6c0.4,0.1,0.9,0.1,0.9-0.4
			c0-0.5-0.2-1.1-0.3-1.5c-0.1-0.5-0.4-1.2-0.4-1.6C150.6,78.7,150.3,78.3,150.2,78.8z"/>
		<path id="XMLID_90_" class="st0" d="M131.8,74.4c-0.2,0.1-0.4,0.4-0.9,0.1c-0.5-0.3-0.8-0.5-0.6-0.7c0.2-0.2,0.5-0.4,1-0.3
			c0.5,0.1,0.8,0.2,0.8,0.3C132.2,74,131.8,74.4,131.8,74.4z"/>
		<path id="XMLID_89_" class="st0" d="M105.9,46.6c0.2,0.2-0.1,0.8-0.7,0.8s-0.9-0.5-0.7-0.7S105.5,46.3,105.9,46.6z"/>
		<path id="XMLID_88_" class="st0" d="M97.8,44.3c0,0-0.4-0.8-0.8-0.5c-0.4,0.3-0.8,0.7-0.4,1C97.1,45,97.8,45.3,97.8,44.3z"/>
		<path id="XMLID_87_" class="st0" d="M98.3,46.5c0,0-0.5-0.7-1-0.6c-0.5,0.1-1,0.3-0.6,0.7C97.2,46.9,98.2,47.2,98.3,46.5z"/>
		<path id="XMLID_86_" class="st0" d="M87.2,43.4L87.1,45c0,0-0.6,0.3-1,0s-0.7-0.6-1-0.8s-0.3-0.4-0.2-0.6s0.2-0.3,0.8-0.3
			S86.8,43.3,87.2,43.4z"/>
		<path id="XMLID_85_" class="st0" d="M82.1,39c0,0-0.6,0.4-0.6,0.8s0.6,0.4,0.4,0.9c-0.2,0.5-0.6,1.4-0.8,1.5s-0.8-0.2-0.8-0.7
			c0-0.5,0.3-1,0.5-1.3s0.4-0.2,0.4-1c0.1-0.8-0.1-1.1,0.3-1.1S82.4,38.5,82.1,39z"/>
		<path id="XMLID_84_" class="st0" d="M76.4,41.5c0,0-0.4,0.5-0.8,0.5s-0.5-0.8-0.1-0.9C76.1,40.8,76.5,40.9,76.4,41.5z"/>
		<path id="XMLID_83_" class="st0" d="M56.8,50.1c0,0-0.6,0.1-0.7,0.3s0.1,0.7,0.4,0.6s0.7-0.3,0.7-0.5S56.8,50.1,56.8,50.1z"/>
		<path id="XMLID_82_" class="st0" d="M54.4,52.1c0,0-0.6,0-0.6,0.4c-0.1,0.4,0.2,0.7,0.4,0.5c0.2-0.2,0.7-0.3,0.6-0.4
			C54.7,52.3,54.4,52.1,54.4,52.1z"/>
	</g>
	<g id="XMLID_77_">
		<path id="XMLID_78_" class="st1" d="M99.3,92.9c0.3,0,0.6,0,0.8,0.1c0.4,0.1,0.7,0.3,1.1,0.6c0.2,0.1,0.3,0.3,0.4,0.5
			c0.1,0.1,0.2,0.3,0.3,0.4c0.1,0.2,0.2,0.4,0.2,0.6c0,0.2,0.1,0.3,0.1,0.5c0,0.5,0,0.9-0.2,1.3c-0.1,0.1-0.1,0.3-0.2,0.4
			c-0.1,0.1-0.2,0.2-0.2,0.3c-0.1,0.2-0.2,0.3-0.3,0.5c-0.1,0.1-0.2,0.3-0.3,0.4c-0.1,0.1-0.2,0.2-0.2,0.3c-0.1,0.1-0.2,0.2-0.3,0.4
			c-0.1,0.1-0.2,0.2-0.2,0.3c-0.2,0.2-0.3,0.5-0.5,0.7c0,0-0.1,0.1-0.1,0.1c-0.1,0-0.2,0-0.3-0.1c-0.1-0.1-0.1-0.2-0.2-0.3
			c-0.1-0.1-0.2-0.3-0.3-0.4c-0.1-0.1-0.2-0.3-0.3-0.4c-0.1-0.1-0.1-0.2-0.2-0.3c-0.1-0.1-0.2-0.2-0.2-0.4c-0.1-0.2-0.2-0.3-0.3-0.5
			c-0.1-0.1-0.2-0.2-0.2-0.3c-0.1-0.1-0.1-0.2-0.2-0.2c-0.1-0.1-0.2-0.2-0.2-0.4c-0.1-0.2-0.2-0.3-0.3-0.5c-0.1-0.3-0.2-0.7-0.2-1.1
			c0-0.1,0-0.3,0-0.4c0-0.1,0-0.1,0-0.2c0-0.1,0.1-0.2,0.1-0.3c0.1-0.3,0.3-0.5,0.5-0.8c0-0.1,0.1-0.1,0.2-0.2
			c0.1-0.1,0.3-0.3,0.4-0.4c0.2-0.2,0.5-0.3,0.7-0.3C98.8,92.9,99,92.9,99.3,92.9z M99.3,96.8c0.7,0,1.2-0.5,1.2-1.2
			c0-0.7-0.5-1.2-1.2-1.2c-0.7,0-1.2,0.5-1.2,1.2C98.1,96.3,98.7,96.8,99.3,96.8z"/>
	</g>
	<g id="XMLID_73_">
		<path id="XMLID_74_" class="st1" d="M118.6,54.9c0.3,0,0.6,0,0.8,0.1c0.4,0.1,0.7,0.3,1.1,0.6c0.2,0.1,0.3,0.3,0.4,0.5
			c0.1,0.1,0.2,0.3,0.3,0.4c0.1,0.2,0.2,0.4,0.2,0.6c0,0.2,0.1,0.3,0.1,0.5c0,0.5,0,0.9-0.2,1.3c-0.1,0.1-0.1,0.3-0.2,0.4
			c-0.1,0.1-0.2,0.2-0.2,0.3c-0.1,0.2-0.2,0.3-0.3,0.5c-0.1,0.1-0.2,0.3-0.3,0.4c-0.1,0.1-0.2,0.2-0.2,0.3c-0.1,0.1-0.2,0.2-0.3,0.4
			c-0.1,0.1-0.2,0.2-0.2,0.3c-0.2,0.2-0.3,0.5-0.5,0.7c0,0-0.1,0.1-0.1,0.1c-0.1,0-0.2,0-0.3-0.1c-0.1-0.1-0.1-0.2-0.2-0.3
			c-0.1-0.1-0.2-0.3-0.3-0.4c-0.1-0.1-0.2-0.3-0.3-0.4c-0.1-0.1-0.1-0.2-0.2-0.3c-0.1-0.1-0.2-0.2-0.2-0.4c-0.1-0.2-0.2-0.3-0.3-0.5
			c-0.1-0.1-0.2-0.2-0.2-0.3c-0.1-0.1-0.1-0.2-0.2-0.2c-0.1-0.1-0.2-0.2-0.2-0.4c-0.1-0.2-0.2-0.3-0.3-0.5c-0.1-0.3-0.2-0.7-0.2-1.1
			c0-0.1,0-0.3,0-0.4c0-0.1,0-0.1,0-0.2c0-0.1,0.1-0.2,0.1-0.3c0.1-0.3,0.3-0.5,0.5-0.8c0-0.1,0.1-0.1,0.2-0.2
			c0.1-0.1,0.3-0.3,0.4-0.4c0.2-0.2,0.5-0.3,0.7-0.3C118.1,54.9,118.4,54.9,118.6,54.9z M118.7,58.8c0.7,0,1.2-0.5,1.2-1.2
			c0-0.7-0.5-1.2-1.2-1.2c-0.7,0-1.2,0.5-1.2,1.2C117.5,58.3,118,58.8,118.7,58.8z"/>
	</g>
	<g id="XMLID_69_">
		<path id="XMLID_70_" class="st1" d="M83.5,73.1c0.3,0,0.6,0,0.8,0.1c0.4,0.1,0.7,0.3,1.1,0.6c0.2,0.1,0.3,0.3,0.4,0.5
			c0.1,0.1,0.2,0.3,0.3,0.4c0.1,0.2,0.2,0.4,0.2,0.6c0,0.2,0.1,0.3,0.1,0.5c0,0.5,0,0.9-0.2,1.3c-0.1,0.1-0.1,0.3-0.2,0.4
			c-0.1,0.1-0.2,0.2-0.2,0.3c-0.1,0.2-0.2,0.3-0.3,0.5c-0.1,0.1-0.2,0.3-0.3,0.4c-0.1,0.1-0.2,0.2-0.2,0.3c-0.1,0.1-0.2,0.2-0.3,0.4
			c-0.1,0.1-0.2,0.2-0.2,0.3c-0.2,0.2-0.3,0.5-0.5,0.7c0,0-0.1,0.1-0.1,0.1c-0.1,0-0.2,0-0.3-0.1c-0.1-0.1-0.1-0.2-0.2-0.3
			c-0.1-0.1-0.2-0.3-0.3-0.4c-0.1-0.1-0.2-0.3-0.3-0.4c-0.1-0.1-0.1-0.2-0.2-0.3c-0.1-0.1-0.2-0.2-0.2-0.4c-0.1-0.2-0.2-0.3-0.3-0.5
			c-0.1-0.1-0.2-0.2-0.2-0.3c-0.1-0.1-0.1-0.2-0.2-0.2c-0.1-0.1-0.2-0.2-0.2-0.4C81,77.3,81,77.1,80.9,77c-0.1-0.3-0.2-0.7-0.2-1.1
			c0-0.1,0-0.3,0-0.4c0-0.1,0-0.1,0-0.2c0-0.1,0.1-0.2,0.1-0.3c0.1-0.3,0.3-0.5,0.5-0.8c0-0.1,0.1-0.1,0.2-0.2
			c0.1-0.1,0.3-0.3,0.4-0.4c0.2-0.2,0.5-0.3,0.7-0.3C82.9,73.1,83.2,73.1,83.5,73.1z M83.5,77.1c0.7,0,1.2-0.5,1.2-1.2
			c0-0.7-0.5-1.2-1.2-1.2c-0.7,0-1.2,0.5-1.2,1.2C82.3,76.5,82.8,77,83.5,77.1z"/>
	</g>
	<g id="XMLID_65_">
		<path id="XMLID_66_" class="st1" d="M91.8,81.5c0.3,0,0.6,0,0.8,0.1c0.4,0.1,0.7,0.3,1.1,0.6c0.2,0.1,0.3,0.3,0.4,0.5
			c0.1,0.1,0.2,0.3,0.3,0.4c0.1,0.2,0.2,0.4,0.2,0.6c0,0.2,0.1,0.3,0.1,0.5c0,0.5,0,0.9-0.2,1.3c-0.1,0.1-0.1,0.3-0.2,0.4
			c-0.1,0.1-0.2,0.2-0.2,0.3c-0.1,0.2-0.2,0.3-0.3,0.5c-0.1,0.1-0.2,0.3-0.3,0.4c-0.1,0.1-0.2,0.2-0.2,0.3c-0.1,0.1-0.2,0.2-0.3,0.4
			c-0.1,0.1-0.2,0.2-0.2,0.3c-0.2,0.2-0.3,0.5-0.5,0.7c0,0-0.1,0.1-0.1,0.1c-0.1,0-0.2,0-0.3-0.1c-0.1-0.1-0.1-0.2-0.2-0.3
			c-0.1-0.1-0.2-0.3-0.3-0.4c-0.1-0.1-0.2-0.3-0.3-0.4c-0.1-0.1-0.1-0.2-0.2-0.3c-0.1-0.1-0.2-0.2-0.2-0.4c-0.1-0.2-0.2-0.3-0.3-0.5
			c-0.1-0.1-0.2-0.2-0.2-0.3c-0.1-0.1-0.1-0.2-0.2-0.2c-0.1-0.1-0.2-0.2-0.2-0.4c-0.1-0.2-0.2-0.3-0.3-0.5c-0.1-0.3-0.2-0.7-0.2-1.1
			c0-0.1,0-0.3,0-0.4c0-0.1,0-0.1,0-0.2c0-0.1,0.1-0.2,0.1-0.3c0.1-0.3,0.3-0.5,0.5-0.8c0-0.1,0.1-0.1,0.2-0.2
			c0.1-0.1,0.3-0.3,0.4-0.4c0.2-0.2,0.5-0.3,0.7-0.3C91.3,81.5,91.6,81.5,91.8,81.5z M91.9,85.4c0.7,0,1.2-0.5,1.2-1.2
			c0-0.7-0.5-1.2-1.2-1.2c-0.7,0-1.2,0.5-1.2,1.2C90.6,84.9,91.2,85.4,91.9,85.4z"/>
	</g>
	<g id="XMLID_61_">
		<path id="XMLID_62_" class="st1" d="M69.5,69.8c0.3,0,0.6,0,0.8,0.1c0.4,0.1,0.7,0.3,1.1,0.6c0.2,0.1,0.3,0.3,0.4,0.5
			c0.1,0.1,0.2,0.3,0.3,0.4c0.1,0.2,0.2,0.4,0.2,0.6c0,0.2,0.1,0.3,0.1,0.5c0,0.5,0,0.9-0.2,1.3c-0.1,0.1-0.1,0.3-0.2,0.4
			c-0.1,0.1-0.2,0.2-0.2,0.3c-0.1,0.2-0.2,0.3-0.3,0.5c-0.1,0.1-0.2,0.3-0.3,0.4c-0.1,0.1-0.2,0.2-0.2,0.3c-0.1,0.1-0.2,0.2-0.3,0.4
			c-0.1,0.1-0.2,0.2-0.2,0.3c-0.2,0.2-0.3,0.5-0.5,0.7c0,0-0.1,0.1-0.1,0.1c-0.1,0-0.2,0-0.3-0.1c-0.1-0.1-0.1-0.2-0.2-0.3
			c-0.1-0.1-0.2-0.3-0.3-0.4c-0.1-0.1-0.2-0.3-0.3-0.4c-0.1-0.1-0.1-0.2-0.2-0.3c-0.1-0.1-0.2-0.2-0.2-0.4c-0.1-0.2-0.2-0.3-0.3-0.5
			c-0.1-0.1-0.2-0.2-0.2-0.3c-0.1-0.1-0.1-0.2-0.2-0.2c-0.1-0.1-0.2-0.2-0.2-0.4c-0.1-0.2-0.2-0.3-0.3-0.5c-0.1-0.3-0.2-0.7-0.2-1.1
			c0-0.1,0-0.3,0-0.4c0-0.1,0-0.1,0-0.2c0-0.1,0.1-0.2,0.1-0.3c0.1-0.3,0.3-0.5,0.5-0.8c0-0.1,0.1-0.1,0.2-0.2
			c0.1-0.1,0.3-0.3,0.4-0.4c0.2-0.2,0.5-0.3,0.7-0.3C69,69.9,69.2,69.8,69.5,69.8z M69.5,73.8c0.7,0,1.2-0.5,1.2-1.2
			c0-0.7-0.5-1.2-1.2-1.2c-0.7,0-1.2,0.5-1.2,1.2C68.3,73.2,68.9,73.8,69.5,73.8z"/>
	</g>
	<g id="XMLID_1_">
		<path id="XMLID_2_" class="st1" d="M75.1,64.9c0.3,0,0.6,0,0.8,0.1c0.4,0.1,0.7,0.3,1.1,0.6c0.2,0.1,0.3,0.3,0.4,0.5
			c0.1,0.1,0.2,0.3,0.3,0.4c0.1,0.2,0.2,0.4,0.2,0.6c0,0.2,0.1,0.3,0.1,0.5c0,0.5,0,0.9-0.2,1.3c-0.1,0.1-0.1,0.3-0.2,0.4
			c-0.1,0.1-0.2,0.2-0.2,0.3c-0.1,0.2-0.2,0.3-0.3,0.5c-0.1,0.1-0.2,0.3-0.3,0.4c-0.1,0.1-0.2,0.2-0.2,0.3c-0.1,0.1-0.2,0.2-0.3,0.4
			c-0.1,0.1-0.2,0.2-0.2,0.3c-0.2,0.2-0.3,0.5-0.5,0.7c0,0-0.1,0.1-0.1,0.1c-0.1,0-0.2,0-0.3-0.1c-0.1-0.1-0.1-0.2-0.2-0.3
			c-0.1-0.1-0.2-0.3-0.3-0.4c-0.1-0.1-0.2-0.3-0.3-0.4c-0.1-0.1-0.1-0.2-0.2-0.3c-0.1-0.1-0.2-0.2-0.2-0.4c-0.1-0.2-0.2-0.3-0.3-0.5
			c-0.1-0.1-0.2-0.2-0.2-0.3c-0.1-0.1-0.1-0.2-0.2-0.2c-0.1-0.1-0.2-0.2-0.2-0.4c-0.1-0.2-0.2-0.3-0.3-0.5c-0.1-0.3-0.2-0.7-0.2-1.1
			c0-0.1,0-0.3,0-0.4c0-0.1,0-0.1,0-0.2c0-0.1,0.1-0.2,0.1-0.3c0.1-0.3,0.3-0.5,0.5-0.8c0-0.1,0.1-0.1,0.2-0.2
			c0.1-0.1,0.3-0.3,0.4-0.4c0.2-0.2,0.5-0.3,0.7-0.3C74.6,64.9,74.9,64.9,75.1,64.9z M75.2,68.8c0.7,0,1.2-0.5,1.2-1.2
			c0-0.7-0.5-1.2-1.2-1.2c-0.7,0-1.2,0.5-1.2,1.2C74,68.3,74.5,68.8,75.2,68.8z"/>
	</g>
	<g id="XMLID_5_">
		<path id="XMLID_6_" class="st1" d="M61.5,59.1c0.3,0,0.6,0,0.8,0.1c0.4,0.1,0.7,0.3,1.1,0.6c0.2,0.1,0.3,0.3,0.4,0.5
			c0.1,0.1,0.2,0.3,0.3,0.4c0.1,0.2,0.2,0.4,0.2,0.6c0,0.2,0.1,0.3,0.1,0.5c0,0.5,0,0.9-0.2,1.3c-0.1,0.1-0.1,0.3-0.2,0.4
			c-0.1,0.1-0.2,0.2-0.2,0.3c-0.1,0.2-0.2,0.3-0.3,0.5c-0.1,0.1-0.2,0.3-0.3,0.4c-0.1,0.1-0.2,0.2-0.2,0.3c-0.1,0.1-0.2,0.2-0.3,0.4
			c-0.1,0.1-0.2,0.2-0.2,0.3c-0.2,0.2-0.3,0.5-0.5,0.7c0,0-0.1,0.1-0.1,0.1c-0.1,0-0.2,0-0.3-0.1c-0.1-0.1-0.1-0.2-0.2-0.3
			c-0.1-0.1-0.2-0.3-0.3-0.4c-0.1-0.1-0.2-0.3-0.3-0.4c-0.1-0.1-0.1-0.2-0.2-0.3c-0.1-0.1-0.2-0.2-0.2-0.4c-0.1-0.2-0.2-0.3-0.3-0.5
			c-0.1-0.1-0.2-0.2-0.2-0.3c-0.1-0.1-0.1-0.2-0.2-0.2c-0.1-0.1-0.2-0.2-0.2-0.4c-0.1-0.2-0.2-0.3-0.3-0.5c-0.1-0.3-0.2-0.7-0.2-1.1
			c0-0.1,0-0.3,0-0.4c0-0.1,0-0.1,0-0.2c0-0.1,0.1-0.2,0.1-0.3c0.1-0.3,0.3-0.5,0.5-0.8c0-0.1,0.1-0.1,0.2-0.2
			c0.1-0.1,0.3-0.3,0.4-0.4c0.2-0.2,0.5-0.3,0.7-0.3C61,59.2,61.3,59.1,61.5,59.1z M61.5,63.1c0.7,0,1.2-0.5,1.2-1.2
			c0-0.7-0.5-1.2-1.2-1.2c-0.7,0-1.2,0.5-1.2,1.2C60.3,62.5,60.9,63.1,61.5,63.1z"/>
	</g>
	<g id="XMLID_57_">
		<path id="XMLID_58_" class="st1" d="M107.8,41.2c0.3,0,0.6,0,0.8,0.1c0.4,0.1,0.7,0.3,1.1,0.6c0.2,0.1,0.3,0.3,0.4,0.5
			c0.1,0.1,0.2,0.3,0.3,0.4c0.1,0.2,0.2,0.4,0.2,0.6c0,0.2,0.1,0.3,0.1,0.5c0,0.5,0,0.9-0.2,1.3c-0.1,0.1-0.1,0.3-0.2,0.4
			c-0.1,0.1-0.2,0.2-0.2,0.3c-0.1,0.2-0.2,0.3-0.3,0.5c-0.1,0.1-0.2,0.3-0.3,0.4c-0.1,0.1-0.2,0.2-0.2,0.3c-0.1,0.1-0.2,0.2-0.3,0.4
			c-0.1,0.1-0.2,0.2-0.2,0.3c-0.2,0.2-0.3,0.5-0.5,0.7c0,0-0.1,0.1-0.1,0.1c-0.1,0-0.2,0-0.3-0.1c-0.1-0.1-0.1-0.2-0.2-0.3
			c-0.1-0.1-0.2-0.3-0.3-0.4c-0.1-0.1-0.2-0.3-0.3-0.4c-0.1-0.1-0.1-0.2-0.2-0.3c-0.1-0.1-0.2-0.2-0.2-0.4c-0.1-0.2-0.2-0.3-0.3-0.5
			c-0.1-0.1-0.2-0.2-0.2-0.3c-0.1-0.1-0.1-0.2-0.2-0.2c-0.1-0.1-0.2-0.2-0.2-0.4c-0.1-0.2-0.2-0.3-0.3-0.5c-0.1-0.3-0.2-0.7-0.2-1.1
			c0-0.1,0-0.3,0-0.4c0-0.1,0-0.1,0-0.2c0-0.1,0.1-0.2,0.1-0.3c0.1-0.3,0.3-0.5,0.5-0.8c0-0.1,0.1-0.1,0.2-0.2
			c0.1-0.1,0.3-0.3,0.4-0.4c0.2-0.2,0.5-0.3,0.7-0.3C107.2,41.3,107.5,41.2,107.8,41.2z M107.8,45.2c0.7,0,1.2-0.5,1.2-1.2
			c0-0.7-0.5-1.2-1.2-1.2c-0.7,0-1.2,0.5-1.2,1.2C106.6,44.6,107.1,45.2,107.8,45.2z"/>
	</g>
	<g id="XMLID_53_">
		<path id="XMLID_54_" class="st1" d="M114,44.4c0.3,0,0.6,0,0.8,0.1c0.4,0.1,0.7,0.3,1.1,0.6c0.2,0.1,0.3,0.3,0.4,0.5
			c0.1,0.1,0.2,0.3,0.3,0.4c0.1,0.2,0.2,0.4,0.2,0.6c0,0.2,0.1,0.3,0.1,0.5c0,0.5,0,0.9-0.2,1.3c-0.1,0.1-0.1,0.3-0.2,0.4
			c-0.1,0.1-0.2,0.2-0.2,0.3c-0.1,0.2-0.2,0.3-0.3,0.5c-0.1,0.1-0.2,0.3-0.3,0.4c-0.1,0.1-0.2,0.2-0.2,0.3c-0.1,0.1-0.2,0.2-0.3,0.4
			c-0.1,0.1-0.2,0.2-0.2,0.3c-0.2,0.2-0.3,0.5-0.5,0.7c0,0-0.1,0.1-0.1,0.1c-0.1,0-0.2,0-0.3-0.1c-0.1-0.1-0.1-0.2-0.2-0.3
			c-0.1-0.1-0.2-0.3-0.3-0.4c-0.1-0.1-0.2-0.3-0.3-0.4c-0.1-0.1-0.1-0.2-0.2-0.3c-0.1-0.1-0.2-0.2-0.2-0.4c-0.1-0.2-0.2-0.3-0.3-0.5
			c-0.1-0.1-0.2-0.2-0.2-0.3c-0.1-0.1-0.1-0.2-0.2-0.2c-0.1-0.1-0.2-0.2-0.2-0.4c-0.1-0.2-0.2-0.3-0.3-0.5c-0.1-0.3-0.2-0.7-0.2-1.1
			c0-0.1,0-0.3,0-0.4c0-0.1,0-0.1,0-0.2c0-0.1,0.1-0.2,0.1-0.3c0.1-0.3,0.3-0.5,0.5-0.8c0-0.1,0.1-0.1,0.2-0.2
			c0.1-0.1,0.3-0.3,0.4-0.4c0.2-0.2,0.5-0.3,0.7-0.3C113.5,44.4,113.8,44.4,114,44.4z M114.1,48.3c0.7,0,1.2-0.5,1.2-1.2
			c0-0.7-0.5-1.2-1.2-1.2c-0.7,0-1.2,0.5-1.2,1.2C112.9,47.8,113.4,48.3,114.1,48.3z"/>
	</g>
	<g id="XMLID_49_">
		<path id="XMLID_50_" class="st1" d="M107.6,77.8c0.3,0,0.6,0,0.8,0.1c0.4,0.1,0.7,0.3,1.1,0.6c0.2,0.1,0.3,0.3,0.4,0.5
			c0.1,0.1,0.2,0.3,0.3,0.4c0.1,0.2,0.2,0.4,0.2,0.6c0,0.2,0.1,0.3,0.1,0.5c0,0.5,0,0.9-0.2,1.3c-0.1,0.1-0.1,0.3-0.2,0.4
			c-0.1,0.1-0.2,0.2-0.2,0.3c-0.1,0.2-0.2,0.3-0.3,0.5c-0.1,0.1-0.2,0.3-0.3,0.4c-0.1,0.1-0.2,0.2-0.2,0.3c-0.1,0.1-0.2,0.2-0.3,0.4
			c-0.1,0.1-0.2,0.2-0.2,0.3c-0.2,0.2-0.3,0.5-0.5,0.7c0,0-0.1,0.1-0.1,0.1c-0.1,0-0.2,0-0.3-0.1c-0.1-0.1-0.1-0.2-0.2-0.3
			c-0.1-0.1-0.2-0.3-0.3-0.4c-0.1-0.1-0.2-0.3-0.3-0.4c-0.1-0.1-0.1-0.2-0.2-0.3c-0.1-0.1-0.2-0.2-0.2-0.4c-0.1-0.2-0.2-0.3-0.3-0.5
			c-0.1-0.1-0.2-0.2-0.2-0.3c-0.1-0.1-0.1-0.2-0.2-0.2c-0.1-0.1-0.2-0.2-0.2-0.4c-0.1-0.2-0.2-0.3-0.3-0.5c-0.1-0.3-0.2-0.7-0.2-1.1
			c0-0.1,0-0.3,0-0.4c0-0.1,0-0.1,0-0.2c0-0.1,0.1-0.2,0.1-0.3c0.1-0.3,0.3-0.5,0.5-0.8c0-0.1,0.1-0.1,0.2-0.2
			c0.1-0.1,0.3-0.3,0.4-0.4c0.2-0.2,0.5-0.3,0.7-0.3C107.1,77.8,107.4,77.8,107.6,77.8z M107.6,81.7c0.7,0,1.2-0.5,1.2-1.2
			c0-0.7-0.5-1.2-1.2-1.2c-0.7,0-1.2,0.5-1.2,1.2C106.4,81.2,107,81.7,107.6,81.7z"/>
	</g>
</g>
</svg>
