<?xml version="1.0" encoding="utf-8"?>
<!-- Generator: Adobe Illustrator 21.0.0, SVG Export Plug-In . SVG Version: 6.00 Build 0)  -->
<svg version="1.1" id="Layer_1" xmlns="http://www.w3.org/2000/svg" xmlns:xlink="http://www.w3.org/1999/xlink" x="0px" y="0px"
	 viewBox="0 0 595.3 595.3" style="enable-background:new 0 0 595.3 595.3;" xml:space="preserve">
<style type="text/css">
	.st0{fill:#99A4AE;}
	.st1{fill:#EA4745;}
</style>
<g>
	<g id="XMLID_81_">
		<path id="XMLID_129_" class="st0" d="M396.2,43.4c0,0-4.5,0.3-5.2,0.5c-0.8,0.3-3.7-1-6-1.8s-7.6-2.4-9.7-2.4
			c-2.1,0-7.1,1.8-11.5,2.4c-4.5,0.5-3.4,1-5.8,3.4c-2.4,2.4-4.7,2.9-7.1,2.4c-2.4-0.5-0.5-2.1,2.1-3.1c2.6-1,0.5-1.8-1.3-2.9
			c-1.8-1-2.1-0.8-4.5-1c-2.4-0.3-8.7-2.9-11-3.4c-2.4-0.5-12.3-1.3-16-0.3c-3.7,1-8.1,3.7-10.8,5.8c-2.6,2.1-4.7,4.2-7.9,6.6
			c-3.1,2.4-6.8,3.1-9.4,5.5c-2.6,2.4-3.7,3.4-4.2,6.8c-0.5,3.4,0.5,2.1,3.4,2.9c2.9,0.8,2.6-2.4,6-2.9c3.4-0.5,2.6,0.8,3.7,2.6
			c1,1.8,1.3,7.3,2.9,7.6c1.6,0.3,2.4-0.3,5.5-1.6c3.1-1.3,5-5.5,6.6-7.6c1.6-2.1-1-5.2-0.8-8.1c0.3-2.9,2.1-2.1,5.5-3.1
			c3.4-1,2.4-2.6,3.1-5c0.8-2.4,1.8-1,3.9-0.5c2.1,0.5,0.8,2.6-0.5,4.7c-1.3,2.1-3.7,3.1-4.7,5.2c-1,2.1,2.9,3.1,4.7,3.9
			c1.8,0.8,5.2-0.5,7.9-0.8c2.6-0.3,5.2-1,8.1-2.9c2.9-1.8,4.2,1.3,3.1,1.8c-1,0.5-3.4,1-5,3.1c-1.6,2.1-6.3,0.3-8.4-0.5
			c-2.1-0.8-3.4,0.5-2.6,3.7c0.8,3.1,2.1,3.1,1,4.5c-1,1.3-5-2.9-6.8-2.1c-1.8,0.8-1.3,4.2-1.6,6.8c-0.3,2.6-3.7,3.1-6.3,1
			c-2.6-2.1-7.9,2.1-7.9,2.1S298.1,77,296.3,77s-1-3.4,0.5-5c1.6-1.6,0.3-3.4-2.1-3.4s-3.7,5-3.7,6.6c0,1.6-5.5,4.2-7.1,4.2
			c-1.6,0-5.5,2.6-10.2,6.3c-4.7,3.7-12.9,5.5-13.6,6.6c-0.8,1-4.2,2.1-5.2,1.2c-1-0.9-5.4-0.4-6.2,0.9c-0.8,1.3-0.1,2.2,1.7,3
			c1.8,0.8,3.7,3.9,4.3,7.5c0.7,3.5-1.7,6.6-4.2,7.9c-2.5,1.3-16.5-0.1-19.6-0.1c-3,0-4.6,2.9-6.6,5.2c-2,2.4-0.4,3.1-1.4,5.4
			c-1,2.2-4.7,4.7-6.4,8c-1.7,3.3,0.7,5.6,2.8,8.9c2.1,3.3,2.2-0.7,4.7-0.5c2.5,0.1,3.1,2.5,4.3,2.5s7.3-1.2,10.5-1.3
			c3.1-0.1,6-3.3,8.5-5.5c2.5-2.2,3.5-5.1,5-7.9c1.4-2.8,7.3-4.1,10-4.9c2.6-0.8,1.8-2.8,2.1-3.8c0.3-1,3.9-3.9,6.7-3.9
			s3.8,1.8,5.9,0.3c2.1-1.6,3.5-3.5,4.9-3.9c1.3-0.4,4.9,0.9,6.3,2.8c1.4,1.8,5,5.2,7.5,7c2.5,1.7,11.1,8,12.6,9.2
			c1.5,1.2,0.3,3.7,0.4,4.8c0.1,1.1,0.6,2.4,0.6,2.4c0.5-0.3,2.6-5,2.6-5s0.5-3.1,0.7-3.1c0.3,0,2.2,0.5,2.5,0.5
			c0.3-0.1,1.4-1.2,1.4-1.2s-1.1-1-2.2-1.5c-1.1-0.5-4.1-2.5-5.8-3.4c-1.7-0.9-8-7.8-10.1-9.7c-2.1-1.9-2.2-4.3-0.9-5.4
			c1.3-1.2,3.4-1.4,4.7-1.1c1.4,0.3,3.4,2.2,5.5,3.9c2.2,1.7,10.5,6.6,11.4,7.7c0.9,1.1,3.4,7.2,4.3,8.6c0.9,1.5,2.6,3.8,5.5,5.8
			c2.9,2,3.1,1.4,3.6,2.8c0.5,1.5-2.5,1-2.5,2.4s2.7,3.9,2.7,3.9s2.9-1.8,2.9-3.6s2.9-0.7,2.9-0.7l1.8-2.6c-1.1-1.1-7.3-5.8-7.3-8.4
			c0-2.6,4,1.8,5.8,0.7c1.8-1.1,0.7-2.2,2.2-2.6c1.5-0.4,5.1,1.8,7.7,1.1c2.6-0.7,2.6-4,2.6-5.1c0-1.1-1.8-3.3-2.2-4.7
			c-0.4-1.5,2.6-5.8,6.2-7.7c3.6-1.8,0,0,0.7-1.8c0.7-1.8,4-3.6,6.2-3.6c2.2,0,2.9,3.6,4.4,5.1c1.5,1.5,4,2.2,6.6,1.5
			c2.6-0.7,0.7-3.3-1.1-4c-1.8-0.7,0.4-2.9,2.9-3.3c2.6-0.4,6.2-1.1,6.2-1.1s0,0,0,1.8c0,1.8,1.1,4.7,1.5,6.6
			c0.4,1.8,9.9,6.2,12.4,8c2.6,1.8,2.2,6.2-1.1,6.6c-3.3,0.4-10.2-1.1-12-2.2c-1.8-1.1-4.7-2.2-7.3-2.6c-2.6-0.4-5.8,1.1-8,2.9
			c-2.2,1.8-5.8,0.7-8,0.7s-4,3.6-7.7,3.6c-3.6,0-4,1.1-4,3.3c0,2.2,1.5,5.1,2.6,7.7c1.1,2.6,4.4,5.5,6.9,6.6
			c2.6,1.1,3.6-0.4,7.3-1.8c3.6-1.5,5.1,1.8,8.4,2.6c3.3,0.7,5.1-3.3,8.4-3.3c3.3,0,5.5,4.4,5.5,8.8c0,4.4-2.9,9.1-3.3,13.9
			c-0.4,4.7-5.5,3.6-8,2.9c-2.6-0.7-4-2.6-7.7-1.1c-3.6,1.5-7.7,2.6-9.5,0.7c-1.8-1.8-12.4-2.9-15-3.6c-2.6-0.7-6.9-3.3-9.1-4
			c-2.2-0.7-6.6,0.7-8.8,3.3c-2.2,2.6-1.1,6.6-2.9,7.3c-1.8,0.7-4.7-1.5-9.1-2.9c-4.4-1.5-6.2-3.6-6.2-6.2c0-2.6-5.8,0.4-9.9-0.7
			c-4-1.1-6.6-3.3-9.5-4.7c-2.9-1.5,1.5-4,2.6-5.8c1.1-1.8-0.4-2.9,0.4-4s-0.7-3.3-3.3-3.6c-2.6-0.4-23.4,0.7-28.5,0.7
			c-5.1,0-12,2.6-16.1,4.7c-4,2.2-13.5-0.4-15.7-1.8c-2.2-1.5-3.3,1.1-5.1,2.9c-1.8,1.8-4.4,4.4-6.2,4.7c-1.8,0.4-5.8,6.2-8,7.7
			c-2.2,1.5-2.9,5.5-4,8.8c-1.1,3.3-5.1,5.5-8.4,5.1c-3.3-0.4-6.6,2.9-7.3,4.4c-0.7,1.5-3.6,2.9-5.5,4c-1.8,1.1-8.4,12.8-10.9,15.3
			c-2.6,2.6-2.2,10.6-2.2,14.2c0,3.6-4.4,12-7.7,13.5c-3.3,1.5,0.4,4.7,2.6,5.5c2.2,0.7,0.4,2.9-0.7,4.7c-1.1,1.8,0.4,5.8,3.3,6.9
			s1.5,5.8,4.4,6.9s4,5.8,4,8.4c0,2.6,4.4,4.7,6.9,5.8c2.6,1.1,9.5,11.3,13.5,13.5s7.7-1.8,11.3-3.3c3.6-1.5,9.1,0.7,13.5,2.9
			c4.4,2.2,10.2-0.7,16.4-5.1c6.2-4.4,17.5,0.7,19,1.5c1.5,0.7,2.9,5.5,4.4,7.7c1.5,2.2,4,0.7,5.5,1.5c1.5,0.7,4,0.4,4,0.4
			s1.5-2.9,2.9-2.6c1.5,0.4,4.7,5.5,6.6,8.4c1.8,2.9-3.6,8.4-5.5,10.2c-1.8,1.8,1.5,10.6,3.3,12.8c1.8,2.2,4.4,3.6,7.7,6.6
			c3.3,2.9,7.7,17.9,8,21.2c0.4,3.3-1.5,5.5,0,7.7c1.5,2.2,0.7,6.9-3.6,10.9c-4.4,4-3.6,7.3-5.5,10.2c-1.8,2.9-1.5,14.6,0.4,16.4
			c1.8,1.8,7.3,6.2,9.5,13.5c2.2,7.3,1.5,12.8,1.5,17.5c0,4.7,6.6,11.3,10.6,14.2c4,2.9,2.2,9.1,4.4,12.4c2.2,3.3-1.5,4.4-1.5,6.9
			c0,2.6,5.8,6.9,8.8,8c2.9,1.1,4.7-2.2,6.2-3.3s4.4-1.1,7.3-0.7c2.9,0.4,9.1,0.4,12.8,0c3.6-0.4,13.9-8.4,16.8-11.7
			c2.9-3.3,9.9-7.7,10.9-10.9c1.1-3.3,4-8.8,9.1-11.7c5.1-2.9,7.7-7.3,8.8-10.2c1.1-2.9-1.5-7.7-1.5-10.9c0-3.3,2.6-5.5,4-6.9
			c1.5-1.5,9.5-6.9,12.8-7.7c3.3-0.7,6.6-1.5,9.5-4c2.9-2.6,2.6-11.3,2.6-15c0-3.6,0.4-6.6,1.5-9.5c1.1-2.9,0.4-4.7-1.1-6.6
			c-1.5-1.8-2.2-10.2-1.1-17.2s5.5-9.1,8.4-10.2c2.9-1.1,7.7-2.6,9.1-5.5c1.5-2.9,7.7-9.1,10.6-10.6c2.9-1.5,6.2-5.1,8-7.7
			c1.8-2.6,0.7-4.7,2.2-6.2c1.5-1.5,4.7-4.4,4.7-6.2c0-1.8,0.7-4.7,2.2-5.8c1.5-1.1,1.8-5.8,2.9-8c1.1-2.2,0.4-6.9-0.4-10.2
			c-0.7-3.3-3.6-2.6-5.5-0.4c-1.8,2.2-6.2,0.4-8,0.4s-7.7,2.2-10.9,2.9c-3.3,0.7-6.9-1.1-7.3-3.6c-0.4-2.6-5.8-8.8-7.7-10.2
			c-1.8-1.5-5.5-8-6.6-9.9c-1.1-1.8-5.1-1.8-5.1-4c0-2.2-2.2-8-4.7-9.9c-2.6-1.8-6.2-9.1-6.2-10.9c0-1.8-3.6-6.9-5.5-7.7
			c-1.8-0.7-2.6-4.7-2.9-6.2c-0.4-1.5-3.6-6.2-5.5-7.3c-1.8-1.1-5.5-5.1-5.8-6.2c-0.4-1.1-1.1-4-2.9-5.5c-1.8-1.5-4-5.8-3.3-6.9
			c0.7-1.1,4.4,2.2,5.8,5.5c1.5,3.3,2.9,0,5.1-1.1c2.2-1.1,3.6,4.7,3.6,4.7s2.2,5.5,4,6.2c1.8,0.7,3.3,4.7,3.6,6.6
			c0.4,1.8,7.7,4.7,8.8,6.2c1.1,1.5,3.3,6.6,5.5,9.5c2.2,2.9,4.7,7.3,6.9,8.8c2.2,1.5,2.6,6.9,5.5,9.5c2.9,2.6,2.6,7.7,2.6,10.2
			c0,2.6,4,8.4,5.8,11.3c1.8,2.9,4.4,0.7,6.2,0c1.8-0.7,5.1-1.1,8.8-1.5c3.6-0.4,12.4-6.6,15.3-6.9c2.9-0.4,1.8-4,2.6-5.5
			c0.7-1.5,5.5-3.6,7.3-3.6c1.8,0,2.2-1.5,2.6-3.3c0.4-1.8,5.1-5.5,6.9-7.3c1.8-1.8,3.3-13.9,3.3-17.9s-9.1-5.8-11.7-6.9
			c-2.6-1.1-2.2-3.6-3.6-6.9c-1.5-3.3-3.3,2.2-6.6,3.6c-3.3,1.5-9.5,3.3-9.5-0.7s-2.6-6.9-5.8-6.9c-3.3,0-8.4-8-10.9-12.8
			c-2.6-4.7,3.3-5.1,6.6-4.7c3.3,0.4,4.4,4.7,8,9.5c3.6,4.7,9.9,8.8,12.8,6.9c2.9-1.8,5.1-1.1,6.9,1.5c1.8,2.6,5.1,4,8,4.4
			c2.9,0.4,8,0.4,13.1,0.4c5.1,0,9.1,1.1,10.9,2.9c1.8,1.8,5.1,7.3,8.4,7.3c3.3,0,4.7,2.6,3.3,2.6c-1.5,0-2.6,2.2-1.8,4
			c0.7,1.8,2.6,3.6,4.7,2.2c2.2-1.5,4.7,1.8,5.8,4c1.1,2.2,1.5,5.5,1.5,10.6c0,5.1,2.2,6.6,4.7,8.8c2.6,2.2,5.5,10.6,5.8,13.1
			c0.4,2.6,0.4,6.6,1.1,8c0.7,1.5,3.6,6.2,3.6,9.1c0,2.9,1.8,6.2,2.9,8.8c1.1,2.6,2.9-2.2,2.9-5.1c0-2.9,2.9-5.5,2.9-8
			c0-2.6-3.3-3.3-3.3-3.3s2.9,0,2.6-1.8c-0.4-1.8-2.9-9.1-2.9-14.6s1.5-9.9,1.5-9.9c0.4-1.8,0-15.7,0-21.2c0-5.5,4.7-2.6,4.7,0
			c0,2.6,2.9,9.9,4,12.4c1.1,2.6,6.2,10.2,6.2,12.8c0,2.6,5.1,6.6,5.1,6.6C529.2,82.8,396.2,43.4,396.2,43.4z M440,142.9
			c-2.9-0.2-4.3,0-6.7-1.7c-2.4-1.7-7.2-5-6.9-7.4c0,0,2.9-3.8-0.5-8.1c-3.4-4.3-9.3-4.3-12-8.6c-2.6-4.3-4.3-9.3-3.4-11
			c1-1.7,3.8-4.8,6.5-4.8c2.6,0,7.9,3.6,6.7,5c-1.2,1.4-2.9,2.2-2.9,3.4s1.9,3.1,4.5,4.5c2.6,1.4,5.3,4.8,5.5,6.2
			c0.2,1.4,3.4,1.4,4.3,2.4c1,1,3.1,1.7,1,2.4c-2.2,0.7-3.6,1.4-2.4,2.4c1.2,1,3.8,2.2,6,5.3s2.9,4.5,2.9,6.7
			C442.6,141.7,442.8,143.1,440,142.9z"/>
		<path id="XMLID_128_" class="st0" d="M266.4,65.1c-0.2-1-0.8-4.3-3.9-3.3s-5.1,3.1-5.3,4.7c-0.2,1.6-1,2.9,1.2,5.5
			c2.2,2.6,3.3,2.6,2.2,3.9s-5.9,3.5-6.5,5.7c-0.6,2.2-1.6,5.1-2.2,5.5c-0.6,0.4,2.2,2,5.1,1s5.7,0.8,8.8-1.6
			c3.1-2.4,5.7-4.3,5.3-5.7c-0.4-1.4-2.9-1.4-3.3-2.9s0.8-2.2-0.4-3.5c-1.2-1.4-3.3-2.4-3.3-3.1s0-2,1.6-3.1
			C267.2,66.9,266.4,65.1,266.4,65.1z"/>
		<path id="XMLID_127_" class="st0" d="M252.3,74.7c0,0-2,5.5-4.3,6.7c-2.4,1.2-5.5,2.6-7.1,2.2c-1.6-0.4-2.2-2.4-0.8-3.9
			c1.4-1.6,2.6-4.3,5.1-5.5c2.6-1.2,3.3-2,5.1-2S252.3,74.7,252.3,74.7z"/>
		<path id="XMLID_126_" class="st0" d="M255.8,48.6c-2.4,0.1-6.9,0.4-7.5,0.4c-0.6,0-2.9,1-1.8-2.7c1.2-3.7,7.9-4.7,9.2-4.3
			c1.4,0.4,3.5,1,3.7,2.4S259.4,48.4,255.8,48.6z"/>
		<path id="XMLID_125_" class="st0" d="M322.8,26.8c0,0-0.6,3.7-5.3,3.7c-4.7,0-11.4-2-12.4-3.5C305.1,27,317.5,26.6,322.8,26.8z"/>
		<path id="XMLID_124_" class="st0" d="M280.8,27c0,0-21-0.8-56.5,10c-13.4,5.5-23.6,12.6-24.5,13.5s-1.6,6.1,1.8,3.3
			c3.3-2.7,15.9-9,19.2-9.6c3.3-0.6,9.8-0.6,12-1.4c2.2-0.8,10.4-4.3,14.3-5.1s6.3-0.2,9-1c2.7-0.8,11.8-4.3,15.7-5.9
			C275.7,29.4,280.8,27,280.8,27z"/>
		<path id="XMLID_123_" class="st0" d="M188.7,50.2c0,0-4.7,5.1-9.2,7.1c-4.5,2-7.9,2.2-10,4.9c-2.2,2.7-3.5,7.3-6.9,8.8
			c-3.3,1.6-3.7,1.6-6.1,3.5c-2.4,2-2.7,3.9-5.5,4.3s-4.9,1-6.7,1s-3.9,0.2-3.9,0.2s-5.1,4.1-1.8,3.7c3.3-0.4,6.1-3.3,8.4-2.7
			c2.4,0.6,3.3,3.9,0.2,5.5s-4.7,4.1-6.3,4.5c-1.6,0.4-2.4,1.6-3.7-0.4c-1.4-2-0.8-3.9-2.2-3.3c-1.4,0.6-7.5,8.2-9.6,9.8
			c-2.2,1.6-14.5,5.1-16.9,7.1C108.6,104.2,140.6,70.6,188.7,50.2z"/>
		<path id="XMLID_122_" class="st0" d="M36.7,225.3c0,0,5.5,7.6,6.2,13.5s-1.3,15.4,1.3,19c2.6,3.6,6.2,7.2,6.9,9.8
			c0.7,2.6,1,8.8,1,9.8s2.3,3.9,0,6.9c-2.3,2.9-5.9,4.6-8.2,5.6c-2.3,1-6.2,2.6-2.9,2.9c3.3,0.3,7.9,2.3,11.1,2
			c3.3-0.3,6.9-0.3,9.2,2.6s6.9,7.2,9.2,7.2c2.3,0,7.2,1.3,8.2,3.9s4.9,6.6,6.2,7.2s3.3,2.6,3.6,5.9c0.3,3.3,2,5.9,2,8.5
			c0,2.6-0.3,5.9-2.3,8.5c-2,2.6-5.2,11.1-5.9,15.7c-0.7,4.6-1,12.5,0.7,13.8c1.6,1.3,2.3,5.9,1.6,7.5c-0.7,1.6-1,4.6,0,6.6
			c1,2,3.3,6.6,2,8.8c-1.3,2.3-1,5.9-5.2,7.9c-4.3,2-5.9,7.2-5.9,9.5s4.3,5.6,4.9,8.2c0.7,2.6,1.3,7.9,1.3,12.8
			c0,4.9,0.3,8.5,1.6,10.2c1.3,1.6,4.9,5.2,3.6,6.9c-1.3,1.6-3.3,1.6-2.6,2.9c0.7,1.3,2.6,3.3,3.6,4.3s1.3,7.2,1.3,7.2
			s3.9,3.6,3.9,6.9s5.2,3.6,5.2,5.6c0,2,1,6.6,1,6.6S-2.1,384.9,36.7,225.3z"/>
		<path id="XMLID_120_" class="st0" d="M233.1,561.2c-0.9-0.2,10.4-0.8,14.8-0.8c4.5,0,8.7-0.3,8.7-0.3s0-2,0.8-2.2s5.3-1.7,7.3-0.3
			c2,1.4,2,3.1,7.3,3.4c5.3,0.3,10.6-0.3,13.7-1.4s10.4-1.4,14.3,0s9.2,0.6,12.6-0.6c3.4-1.1,16.2,0,16.5,0.8
			c0.3,0.8,5.6,0.3,6.7-0.8c1.1-1.1,0.6,0.3,3.9,0.3s8.7-2,12-3.4c3.4-1.4,8.4-2.8,9.5-1.7c1.1,1.1,9.5,3.1,10.1,4.8
			C371.5,558.9,317.7,579,233.1,561.2z"/>
		<path id="XMLID_93_" class="st0" d="M467.7,407c0,0,1.6-1,1.6-2.3c0-1.3-3.1-1.3-3.4-0.3C465.6,405.5,467.7,407,467.7,407z"/>
		<path id="XMLID_92_" class="st0" d="M450,382.4c0.3-1.8,1.6-5.2,2.6-5.2c1,0,5.4,0,4.7-2.8c-0.8-2.8,0.3-4.4-0.8-7.2
			c-1-2.8,0.3-7.5-3.1-7.5c-3.4,0-3.4,1.3-4.4,3.1c-1,1.8-2.6,3.9-3.9,5.4c-1.3,1.6,0.3,5.4-3.9,8.3c-4.1,2.8-2.8,5.4-6.5,4.1
			c-3.6-1.3-4.7-1.8-6.5,1.6c-1.8,3.4-2.6,7-2.1,9.1s0.8,3.1-1,6.2c-1.8,3.1-5.4,10.1-6,14.5c-0.5,4.4-2.3,9.1-0.3,10.4
			c2.1,1.3,4.7-0.3,6.7-1.3s3.6,1,6-2.1s4.7-6.5,6.7-11.4S448.2,392,450,382.4z"/>
		<path id="XMLID_91_" class="st0" d="M548.4,273.5c0,0-0.4,6.1-0.4,8.9c0,2.8-0.5,5.5,1.1,6.1c1.7,0.5,3.7,0.2,3.7-1.7
			c0-1.9-0.8-4.1-1.1-6c-0.3-1.9-1.6-4.7-1.7-6.1C549.9,273.4,548.9,271.6,548.4,273.5z"/>
		<path id="XMLID_90_" class="st0" d="M477.8,256.5c-0.6,0.3-1.6,1.5-3.5,0.3c-1.9-1.2-3.1-2.1-2.3-2.6c0.7-0.6,2.1-1.5,4-1
			c1.9,0.4,3.1,0.6,3.1,1.3C478.9,255.2,477.8,256.5,477.8,256.5z"/>
		<path id="XMLID_89_" class="st0" d="M377.7,149.8c0.6,0.7-0.4,3-2.8,3s-3.3-1.8-2.6-2.8C373.2,149,376.6,148.4,377.7,149.8z"/>
		<path id="XMLID_88_" class="st0" d="M346.6,140.7c0,0-1.6-3-3-1.8s-3.1,2.8-1.4,3.7S346.8,144.9,346.6,140.7z"/>
		<path id="XMLID_87_" class="st0" d="M348.6,149.4c0,0-2-2.8-3.9-2.4c-2,0.4-3.9,1.2-2.2,2.6C344.3,151,348.2,152.2,348.6,149.4z"
			/>
		<path id="XMLID_86_" class="st0" d="M305.9,137.4l-0.4,6.1c0,0-2.2,1.2-3.9,0s-2.8-2.2-3.9-3c-1.2-0.8-1-1.6-0.8-2.2
			c0.2-0.6,0.8-1.2,3-1.2C302,137.2,304.5,137,305.9,137.4z"/>
		<path id="XMLID_85_" class="st0" d="M286.4,120.7c0,0-2.4,1.4-2.2,3.1c0.2,1.8,2.2,1.6,1.6,3.5c-0.6,2-2.2,5.3-3.1,5.7
			s-3.1-0.8-3.1-2.8c0-2,1-3.9,1.8-5.1s1.4-0.8,1.6-3.7c0.2-3-0.4-4.1,1.2-4.1S287.4,118.5,286.4,120.7z"/>
		<path id="XMLID_84_" class="st0" d="M264.6,129.9c0,0-1.4,2-3,1.8s-2-3-0.2-3.5C263.2,127.6,265,127.9,264.6,129.9z"/>
		<path id="XMLID_83_" class="st0" d="M189.1,163.3c0,0-2.4,0.3-2.7,1.1c-0.3,0.8,0.5,2.8,1.5,2.4c0.9-0.4,2.8-1.1,2.8-1.8
			S189.1,163.3,189.1,163.3z"/>
		<path id="XMLID_82_" class="st0" d="M179.6,170.8c0,0-2.2,0-2.4,1.4c-0.3,1.4,0.8,2.6,1.6,1.8c0.8-0.8,2.7-1.1,2.3-1.6
			C180.7,171.7,179.6,170.8,179.6,170.8z"/>
	</g>
	<g id="XMLID_77_">
		<path id="XMLID_78_" class="st1" d="M352.5,327.8c1.1,0,2.1,0.1,3.1,0.4c1.5,0.4,2.9,1.1,4.1,2.2c0.6,0.5,1.2,1.1,1.7,1.8
			c0.4,0.5,0.7,1.1,1,1.7c0.4,0.7,0.6,1.4,0.8,2.2c0.2,0.6,0.3,1.3,0.3,1.9c0.1,1.8-0.2,3.5-0.9,5.2c-0.2,0.6-0.5,1.1-0.9,1.6
			c-0.3,0.5-0.6,0.9-1,1.3c-0.4,0.6-0.9,1.3-1.3,1.9c-0.4,0.6-0.8,1.2-1.2,1.7c-0.3,0.4-0.6,0.8-0.9,1.3c-0.3,0.5-0.6,0.9-1,1.4
			c-0.3,0.4-0.6,0.9-0.9,1.3c-0.7,0.9-1.3,1.9-2,2.8c-0.1,0.2-0.3,0.4-0.5,0.5c-0.4,0.2-0.8,0.1-1-0.3c-0.3-0.4-0.5-0.8-0.8-1.1
			c-0.4-0.5-0.7-1-1.1-1.5c-0.3-0.5-0.6-1-1-1.4c-0.3-0.3-0.5-0.7-0.7-1c-0.3-0.5-0.6-0.9-0.9-1.4c-0.4-0.6-0.8-1.2-1.3-1.9
			c-0.3-0.4-0.6-0.9-0.9-1.3c-0.2-0.3-0.4-0.6-0.7-1c-0.3-0.5-0.6-0.9-1-1.4c-0.4-0.6-0.7-1.3-1-1.9c-0.5-1.3-0.8-2.7-0.8-4.2
			c0-0.6,0.1-1.1,0.2-1.7c0-0.3,0-0.6,0.1-0.8c0.2-0.4,0.3-0.8,0.4-1.2c0.4-1.1,1-2.1,1.7-3c0.2-0.2,0.4-0.5,0.6-0.7
			c0.5-0.6,1.1-1,1.7-1.4c0.8-0.6,1.8-1,2.7-1.3C350.4,327.9,351.5,327.8,352.5,327.8z M352.6,342.9c2.6,0,4.7-2.1,4.7-4.7
			c0-2.6-2.1-4.7-4.7-4.7c-2.6,0-4.7,2.1-4.7,4.6C348,340.8,350,342.9,352.6,342.9z"/>
	</g>
	<g id="XMLID_73_">
		<path id="XMLID_74_" class="st1" d="M426.9,181.5c1.1,0,2.1,0.1,3.1,0.4c1.5,0.4,2.9,1.1,4.1,2.2c0.6,0.5,1.2,1.1,1.7,1.8
			c0.4,0.5,0.7,1.1,1,1.7c0.4,0.7,0.6,1.4,0.8,2.2c0.2,0.6,0.3,1.3,0.3,1.9c0.1,1.8-0.2,3.5-0.9,5.2c-0.2,0.6-0.5,1.1-0.9,1.6
			c-0.3,0.5-0.6,0.9-1,1.3c-0.4,0.6-0.9,1.3-1.3,1.9c-0.4,0.6-0.8,1.2-1.2,1.7c-0.3,0.4-0.6,0.8-0.9,1.3c-0.3,0.5-0.6,0.9-1,1.4
			c-0.3,0.4-0.6,0.9-0.9,1.3c-0.7,0.9-1.3,1.9-2,2.8c-0.1,0.2-0.3,0.4-0.5,0.5c-0.4,0.2-0.8,0.1-1-0.3c-0.3-0.4-0.5-0.8-0.8-1.1
			c-0.4-0.5-0.7-1-1.1-1.5c-0.3-0.5-0.6-1-1-1.4c-0.3-0.3-0.5-0.7-0.7-1c-0.3-0.5-0.6-0.9-0.9-1.4c-0.4-0.6-0.8-1.2-1.3-1.9
			c-0.3-0.4-0.6-0.9-0.9-1.3c-0.2-0.3-0.4-0.6-0.7-1c-0.3-0.5-0.6-0.9-1-1.4c-0.4-0.6-0.7-1.3-1-1.9c-0.5-1.3-0.8-2.7-0.8-4.2
			c0-0.6,0.1-1.1,0.2-1.7c0-0.3,0-0.6,0.1-0.8c0.2-0.4,0.3-0.8,0.4-1.2c0.4-1.1,1-2.1,1.7-3c0.2-0.2,0.4-0.5,0.6-0.7
			c0.5-0.6,1.1-1,1.7-1.4c0.8-0.6,1.8-1,2.7-1.3C424.8,181.7,425.9,181.5,426.9,181.5z M427,196.7c2.6,0,4.7-2.1,4.7-4.7
			c0-2.6-2.1-4.7-4.7-4.7c-2.6,0-4.7,2.1-4.7,4.6C422.4,194.6,424.4,196.7,427,196.7z"/>
	</g>
	<g id="XMLID_69_">
		<path id="XMLID_70_" class="st1" d="M291.6,251.7c1.1,0,2.1,0.1,3.1,0.4c1.5,0.4,2.9,1.1,4.1,2.2c0.6,0.5,1.2,1.1,1.7,1.8
			c0.4,0.5,0.7,1.1,1,1.7c0.4,0.7,0.6,1.4,0.8,2.2c0.2,0.6,0.3,1.3,0.3,1.9c0.1,1.8-0.2,3.5-0.9,5.2c-0.2,0.6-0.5,1.1-0.9,1.6
			c-0.3,0.5-0.6,0.9-1,1.3c-0.4,0.6-0.9,1.3-1.3,1.9c-0.4,0.6-0.8,1.2-1.2,1.7c-0.3,0.4-0.6,0.8-0.9,1.3c-0.3,0.5-0.6,0.9-1,1.4
			c-0.3,0.4-0.6,0.9-0.9,1.3c-0.7,0.9-1.3,1.9-2,2.8c-0.1,0.2-0.3,0.4-0.5,0.5c-0.4,0.2-0.8,0.1-1-0.3c-0.3-0.4-0.5-0.8-0.8-1.1
			c-0.4-0.5-0.7-1-1.1-1.5c-0.3-0.5-0.6-1-1-1.4c-0.3-0.3-0.5-0.7-0.7-1c-0.3-0.5-0.6-0.9-0.9-1.4c-0.4-0.6-0.8-1.2-1.3-1.9
			c-0.3-0.4-0.6-0.9-0.9-1.3c-0.2-0.3-0.4-0.6-0.7-1c-0.3-0.5-0.6-0.9-1-1.4c-0.4-0.6-0.7-1.3-1-1.9c-0.5-1.3-0.8-2.7-0.8-4.2
			c0-0.6,0.1-1.1,0.2-1.7c0-0.3,0-0.6,0.1-0.8c0.2-0.4,0.3-0.8,0.4-1.2c0.4-1.1,1-2.1,1.7-3c0.2-0.2,0.4-0.5,0.6-0.7
			c0.5-0.6,1.1-1,1.7-1.4c0.8-0.6,1.8-1,2.7-1.3C289.5,251.9,290.6,251.7,291.6,251.7z M291.7,266.9c2.6,0,4.7-2.1,4.7-4.7
			c0-2.6-2.1-4.7-4.7-4.7c-2.6,0-4.7,2.1-4.7,4.6C287,264.8,289.1,266.9,291.7,266.9z"/>
	</g>
	<g id="XMLID_65_">
		<path id="XMLID_66_" class="st1" d="M323.8,283.9c1.1,0,2.1,0.1,3.1,0.4c1.5,0.4,2.9,1.1,4.1,2.2c0.6,0.5,1.2,1.1,1.7,1.8
			c0.4,0.5,0.7,1.1,1,1.7c0.4,0.7,0.6,1.4,0.8,2.2c0.2,0.6,0.3,1.3,0.3,1.9c0.1,1.8-0.2,3.5-0.9,5.2c-0.2,0.6-0.5,1.1-0.9,1.6
			c-0.3,0.5-0.6,0.9-1,1.3c-0.4,0.6-0.9,1.3-1.3,1.9c-0.4,0.6-0.8,1.2-1.2,1.7c-0.3,0.4-0.6,0.8-0.9,1.3c-0.3,0.5-0.6,0.9-1,1.4
			c-0.3,0.4-0.6,0.9-0.9,1.3c-0.7,0.9-1.3,1.9-2,2.8c-0.1,0.2-0.3,0.4-0.5,0.5c-0.4,0.2-0.8,0.1-1-0.3c-0.3-0.4-0.5-0.8-0.8-1.1
			c-0.4-0.5-0.7-1-1.1-1.5c-0.3-0.5-0.6-1-1-1.4c-0.3-0.3-0.5-0.7-0.7-1c-0.3-0.5-0.6-0.9-0.9-1.4c-0.4-0.6-0.8-1.2-1.3-1.9
			c-0.3-0.4-0.6-0.9-0.9-1.3c-0.2-0.3-0.4-0.6-0.7-1c-0.3-0.5-0.6-0.9-1-1.4c-0.4-0.6-0.7-1.3-1-1.9c-0.5-1.3-0.8-2.7-0.8-4.2
			c0-0.6,0.1-1.1,0.2-1.7c0-0.3,0-0.6,0.1-0.8c0.2-0.4,0.3-0.8,0.4-1.2c0.4-1.1,1-2.1,1.7-3c0.2-0.2,0.4-0.5,0.6-0.7
			c0.5-0.6,1.1-1,1.7-1.4c0.8-0.6,1.8-1,2.7-1.3C321.7,284.1,322.8,283.9,323.8,283.9z M323.9,299.1c2.6,0,4.7-2.1,4.7-4.7
			c0-2.6-2.1-4.7-4.7-4.7c-2.6,0-4.7,2.1-4.7,4.6C319.2,297,321.3,299.1,323.9,299.1z"/>
	</g>
	<g id="XMLID_61_">
		<path id="XMLID_62_" class="st1" d="M237.9,239.1c1.1,0,2.1,0.1,3.1,0.4c1.5,0.4,2.9,1.1,4.1,2.2c0.6,0.5,1.2,1.1,1.7,1.8
			c0.4,0.5,0.7,1.1,1,1.7c0.4,0.7,0.6,1.4,0.8,2.2c0.2,0.6,0.3,1.3,0.3,1.9c0.1,1.8-0.2,3.5-0.9,5.2c-0.2,0.6-0.5,1.1-0.9,1.6
			c-0.3,0.5-0.6,0.9-1,1.3c-0.4,0.6-0.9,1.3-1.3,1.9c-0.4,0.6-0.8,1.2-1.2,1.7c-0.3,0.4-0.6,0.8-0.9,1.3c-0.3,0.5-0.6,0.9-1,1.4
			c-0.3,0.4-0.6,0.9-0.9,1.3c-0.7,0.9-1.3,1.9-2,2.8c-0.1,0.2-0.3,0.4-0.5,0.5c-0.4,0.2-0.8,0.1-1-0.3c-0.3-0.4-0.5-0.8-0.8-1.1
			c-0.4-0.5-0.7-1-1.1-1.5c-0.3-0.5-0.6-1-1-1.4c-0.3-0.3-0.5-0.7-0.7-1c-0.3-0.5-0.6-0.9-0.9-1.4c-0.4-0.6-0.8-1.2-1.3-1.9
			c-0.3-0.4-0.6-0.9-0.9-1.3c-0.2-0.3-0.4-0.6-0.7-1c-0.3-0.5-0.6-0.9-1-1.4c-0.4-0.6-0.7-1.3-1-1.9c-0.5-1.3-0.8-2.7-0.8-4.2
			c0-0.6,0.1-1.1,0.2-1.7c0-0.3,0-0.6,0.1-0.8c0.2-0.4,0.3-0.8,0.4-1.2c0.4-1.1,1-2.1,1.7-3c0.2-0.2,0.4-0.5,0.6-0.7
			c0.5-0.6,1.1-1,1.7-1.4c0.8-0.6,1.8-1,2.7-1.3C235.8,239.2,236.9,239.1,237.9,239.1z M238,254.3c2.6,0,4.7-2.1,4.7-4.7
			c0-2.6-2.1-4.7-4.7-4.7c-2.6,0-4.7,2.1-4.7,4.6C233.3,252.1,235.4,254.2,238,254.3z"/>
	</g>
	<g id="XMLID_57_">
		<path id="XMLID_58_" class="st1" d="M385.2,129.1c1.1,0,2.1,0.1,3.1,0.4c1.5,0.4,2.9,1.1,4.1,2.2c0.6,0.5,1.2,1.1,1.7,1.8
			c0.4,0.5,0.7,1.1,1,1.7c0.4,0.7,0.6,1.4,0.8,2.2c0.2,0.6,0.3,1.3,0.3,1.9c0.1,1.8-0.2,3.5-0.9,5.2c-0.2,0.6-0.5,1.1-0.9,1.6
			c-0.3,0.5-0.6,0.9-1,1.3c-0.4,0.6-0.9,1.3-1.3,1.9c-0.4,0.6-0.8,1.2-1.2,1.7c-0.3,0.4-0.6,0.8-0.9,1.3c-0.3,0.5-0.6,0.9-1,1.4
			c-0.3,0.4-0.6,0.9-0.9,1.3c-0.7,0.9-1.3,1.9-2,2.8c-0.1,0.2-0.3,0.4-0.5,0.5c-0.4,0.2-0.8,0.1-1-0.3c-0.3-0.4-0.5-0.8-0.8-1.1
			c-0.4-0.5-0.7-1-1.1-1.5c-0.3-0.5-0.6-1-1-1.4c-0.3-0.3-0.5-0.7-0.7-1c-0.3-0.5-0.6-0.9-0.9-1.4c-0.4-0.6-0.8-1.2-1.3-1.9
			c-0.3-0.4-0.6-0.9-0.9-1.3c-0.2-0.3-0.4-0.6-0.7-1c-0.3-0.5-0.6-0.9-1-1.4c-0.4-0.6-0.7-1.3-1-1.9c-0.5-1.3-0.8-2.7-0.8-4.2
			c0-0.6,0.1-1.1,0.2-1.7c0-0.3,0-0.6,0.1-0.8c0.2-0.4,0.3-0.8,0.4-1.2c0.4-1.1,1-2.1,1.7-3c0.2-0.2,0.4-0.5,0.6-0.7
			c0.5-0.6,1.1-1,1.7-1.4c0.8-0.6,1.8-1,2.7-1.3C383.1,129.2,384.2,129.1,385.2,129.1z M385.3,144.2c2.6,0,4.7-2.1,4.7-4.7
			c0-2.6-2.1-4.7-4.7-4.7c-2.6,0-4.7,2.1-4.7,4.6C380.6,142.1,382.7,144.2,385.3,144.2z"/>
	</g>
	<g id="XMLID_53_">
		<path id="XMLID_54_" class="st1" d="M409.3,141.2c1.1,0,2.1,0.1,3.1,0.4c1.5,0.4,2.9,1.1,4.1,2.2c0.6,0.5,1.2,1.1,1.7,1.8
			c0.4,0.5,0.7,1.1,1,1.7c0.4,0.7,0.6,1.4,0.8,2.2c0.2,0.6,0.3,1.3,0.3,1.9c0.1,1.8-0.2,3.5-0.9,5.2c-0.2,0.6-0.5,1.1-0.9,1.6
			c-0.3,0.5-0.6,0.9-1,1.3c-0.4,0.6-0.9,1.3-1.3,1.9c-0.4,0.6-0.8,1.2-1.2,1.7c-0.3,0.4-0.6,0.8-0.9,1.3c-0.3,0.5-0.6,0.9-1,1.4
			c-0.3,0.4-0.6,0.9-0.9,1.3c-0.7,0.9-1.3,1.9-2,2.8c-0.1,0.2-0.3,0.4-0.5,0.5c-0.4,0.2-0.8,0.1-1-0.3c-0.3-0.4-0.5-0.8-0.8-1.1
			c-0.4-0.5-0.7-1-1.1-1.5c-0.3-0.5-0.6-1-1-1.4c-0.3-0.3-0.5-0.7-0.7-1c-0.3-0.5-0.6-0.9-0.9-1.4c-0.4-0.6-0.8-1.2-1.3-1.9
			c-0.3-0.4-0.6-0.9-0.9-1.3c-0.2-0.3-0.4-0.6-0.7-1c-0.3-0.5-0.6-0.9-1-1.4c-0.4-0.6-0.7-1.3-1-1.9c-0.5-1.3-0.8-2.7-0.8-4.2
			c0-0.6,0.1-1.1,0.2-1.7c0-0.3,0-0.6,0.1-0.8c0.2-0.4,0.3-0.8,0.4-1.2c0.4-1.1,1-2.1,1.7-3c0.2-0.2,0.4-0.5,0.6-0.7
			c0.5-0.6,1.1-1,1.7-1.4c0.8-0.6,1.8-1,2.7-1.3C407.2,141.3,408.3,141.2,409.3,141.2z M409.4,156.3c2.6,0,4.7-2.1,4.7-4.7
			c0-2.6-2.1-4.7-4.7-4.7c-2.6,0-4.7,2.1-4.7,4.6C404.7,154.2,406.8,156.3,409.4,156.3z"/>
	</g>
	<g id="XMLID_49_">
		<path id="XMLID_50_" class="st1" d="M384.5,269.7c1.1,0,2.1,0.1,3.1,0.4c1.5,0.4,2.9,1.1,4.1,2.2c0.6,0.5,1.2,1.1,1.7,1.8
			c0.4,0.5,0.7,1.1,1,1.7c0.4,0.7,0.6,1.4,0.8,2.2c0.2,0.6,0.3,1.3,0.3,1.9c0.1,1.8-0.2,3.5-0.9,5.2c-0.2,0.6-0.5,1.1-0.9,1.6
			c-0.3,0.5-0.6,0.9-1,1.3c-0.4,0.6-0.9,1.3-1.3,1.9c-0.4,0.6-0.8,1.2-1.2,1.7c-0.3,0.4-0.6,0.8-0.9,1.3c-0.3,0.5-0.6,0.9-1,1.4
			c-0.3,0.4-0.6,0.9-0.9,1.3c-0.7,0.9-1.3,1.9-2,2.8c-0.1,0.2-0.3,0.4-0.5,0.5c-0.4,0.2-0.8,0.1-1-0.3c-0.3-0.4-0.5-0.8-0.8-1.1
			c-0.4-0.5-0.7-1-1.1-1.5c-0.3-0.5-0.6-1-1-1.4c-0.3-0.3-0.5-0.7-0.7-1c-0.3-0.5-0.6-0.9-0.9-1.4c-0.4-0.6-0.8-1.2-1.3-1.9
			c-0.3-0.4-0.6-0.9-0.9-1.3c-0.2-0.3-0.4-0.6-0.7-1c-0.3-0.5-0.6-0.9-1-1.4c-0.4-0.6-0.7-1.3-1-1.9c-0.5-1.3-0.8-2.7-0.8-4.2
			c0-0.6,0.1-1.1,0.2-1.7c0-0.3,0-0.6,0.1-0.8c0.2-0.4,0.3-0.8,0.4-1.2c0.4-1.1,1-2.1,1.7-3c0.2-0.2,0.4-0.5,0.6-0.7
			c0.5-0.6,1.1-1,1.7-1.4c0.8-0.6,1.8-1,2.7-1.3C382.4,269.9,383.5,269.7,384.5,269.7z M384.6,284.9c2.6,0,4.7-2.1,4.7-4.7
			c0-2.6-2.1-4.7-4.7-4.7c-2.6,0-4.7,2.1-4.7,4.6C379.9,282.8,382,284.9,384.6,284.9z"/>
	</g>
</g>
</svg>
